:FULLY-SPECIFIED
:FORCE-ALL-JOINTS-BE-3DOF
:DEGREES
374
root 6.21155 16.5064 -15.9409 9.4461 -17.0944 -6.12549
lfemur -45.7846 23.571 -13.4911
ltibia 68.4752 0 0
lfoot -10.2023 -2.70624 0
ltoes 13.1219 0 0
rfemur -24.8819 -3.42592 31.2408
rtibia 41.8536 0 0
rfoot -21.3573 0.752026 0
rtoes 17.8173 0 0
lowerback 5.28555 1.63606 3.34708
upperback 2.61163 2.32763 1.05582
thorax -0.180268 1.18021 -0.914446
lowerneck -7.90729 -1.29355 2.86999
upperneck -0.611414 -2.03342 2.15119
head 1.12562 -0.980504 0.119839
lclavicle -7.45763e-15 -7.87333e-16 0
lhumerus -40.1244 -23.1071 94.9498
lradius 56.271 0 0
lwrist 18.3697 0 0
lhand -21.5495 2.44791 0
lfingers 7.12502 0 0
lthumb 4.84366 32.3674 0
rclavicle -7.45763e-15 -7.87333e-16 0
rhumerus -37.459 12.6007 -93.4255
rradius 61.039 0 0
rwrist 9.45323 0 0
rhand -9.38395 -19.2432 0
rfingers 7.12502 0 0
rthumb 16.5766 -768.566 0
375
root 6.15199 16.5071 -15.766 9.52824 -17.9555 -6.34567
lfemur -46.784 22.7648 -13.9173
ltibia 65.8075 0 0
lfoot -10.2068 -1.35054 0
ltoes 13.3356 0 0
rfemur -23.8511 -2.77204 31.3528
rtibia 41.4743 0 0
rfoot -21.7708 0.689972 0
rtoes 18.0634 0 0
lowerback 5.28641 1.78073 3.59832
upperback 2.59657 2.52951 0.979941
thorax -0.17678 1.28344 -1.14082
lowerneck -7.81997 -1.15941 3.09448
upperneck -0.524184 -1.87056 2.01631
head 1.13391 -0.90045 0.0459868
lclavicle -2.28602e-15 0 0
lhumerus -39.9416 -23.2189 94.5087
lradius 55.8802 0 0
lwrist 18.282 0 0
lhand -21.9529 2.30116 0
lfingers 7.12502 0 0
lthumb 4.45424 32.2343 0
rclavicle -2.28602e-15 0 0
rhumerus -37.5524 13.1367 -93.5797
rradius 60.1793 0 0
rwrist 10.0238 0 0
rhand -9.12801 -18.7452 0
rfingers 7.12502 0 0
rthumb 16.8232 -768.036 0
376
root 6.14396 16.5073 -15.7427 9.53391 -18.0653 -6.37304
lfemur -46.8479 22.6294 -13.9233
ltibia 65.4298 0 0
lfoot -10.2019 -1.16599 0
ltoes 13.3612 0 0
rfemur -23.7024 -2.69346 31.3682
rtibia 41.4097 0 0
rfoot -21.8266 0.68393 0
rtoes 18.083 0 0
lowerback 5.28131 1.79951 3.62645
upperback 2.59294 2.55528 0.971198
thorax -0.175033 1.2966 -1.1662
lowerneck -7.80606 -1.14383 3.12169
upperneck -0.51124 -1.85155 2.00249
head 1.13514 -0.89101 0.0378023
lclavicle -1.3127e-15 8.10608e-17 0
lhumerus -39.9303 -23.2173 94.4577
lradius 55.8395 0 0
lwrist 18.2761 0 0
lhand -21.9709 2.29811 0
lfingers 7.12502 0 0
lthumb 4.43693 32.2323 0
rclavicle -1.3127e-15 8.10608e-17 0
rhumerus -37.575 13.1961 -93.6003
rradius 60.0815 0 0
rwrist 10.0745 0 0
rhand -9.11219 -18.6973 0
rfingers 7.12502 0 0
rthumb 16.8385 -767.987 0
377
root 6.12147 16.5082 -15.6774 9.54594 -18.3606 -6.4496
lfemur -46.9416 22.194 -13.8823
ltibia 64.2735 0 0
lfoot -10.1628 -0.605528 0
ltoes 13.4549 0 0
rfemur -23.2552 -2.47114 31.4125
rtibia 41.1867 0 0
rfoot -21.9996 0.664578 0
rtoes 18.1161 0 0
lowerback 5.25698 1.85166 3.7039
upperback 2.58038 2.62646 0.947765
thorax -0.166542 1.33299 -1.23502
lowerneck -7.76203 -1.10439 3.19551
upperneck -0.471656 -1.80351 1.96737
head 1.13895 -0.867074 0.0162213
lclavicle 1.91566e-15 3.29534e-16 0
lhumerus -39.913 -23.1996 94.3224
lradius 55.7314 0 0
lwrist 18.2638 0 0
lhand -21.9746 2.312 0
lfingers 7.12502 0 0
lthumb 4.43338 32.2477 0
rclavicle 1.91566e-15 3.29534e-16 0
rhumerus -37.6487 13.3601 -93.6608
rradius 59.8215 0 0
rwrist 10.1988 0 0
rhand -9.11467 -18.6012 0
rfingers 7.12502 0 0
rthumb 16.8362 -767.893 0
378
root 6.08681 16.5098 -15.5762 9.55732 -18.7959 -6.56647
lfemur -46.9441 21.4323 -13.7241
ltibia 62.3403 0 0
lfoot -10.0611 0.325602 0
ltoes 13.6309 0 0
rfemur -22.5211 -2.12995 31.4815
rtibia 40.783 0 0
rfoot -22.2883 0.631302 0
rtoes 18.1307 0 0
lowerback 5.20322 1.93129 3.81984
upperback 2.55706 2.73445 0.913275
thorax -0.147741 1.38823 -1.3368
lowerneck -7.68611 -1.05053 3.30523
upperneck -0.404908 -1.73808 1.9195
head 1.1456 -0.834289 -0.0147019
lclavicle 7.67742e-15 7.41726e-16 0
lhumerus -39.9104 -23.1508 94.1277
lradius 55.5746 0 0
lwrist 18.2515 0 0
lhand -21.9031 2.37001 0
lfingers 7.12502 0 0
lthumb 4.50241 32.3053 0
rclavicle 7.67742e-15 7.41726e-16 0
rhumerus -37.7797 13.6072 -93.7579
rradius 59.4461 0 0
rwrist 10.3599 0 0
rhand -9.19572 -18.5156 0
rfingers 7.12502 0 0
rthumb 16.7582 -767.815 0
379
root 6.04211 16.5121 -15.4453 9.56162 -19.3324 -6.71411
lfemur -46.7689 20.3409 -13.4033
ltibia 59.6794 0 0
lfoot -9.8794 1.60154 0
ltoes 13.888 0 0
rfemur -21.5282 -1.70099 31.5693
rtibia 40.2041 0 0
rfoot -22.6776 0.585115 0
rtoes 18.1038 0 0
lowerback 5.11422 2.03292 3.96283
upperback 2.52211 2.87139 0.870615
thorax -0.116806 1.4583 -1.46169
lowerneck -7.57874 -0.989628 3.44152
upperneck -0.311279 -1.66437 1.86615
head 1.15538 -0.797065 -0.0514531
lclavicle 1.60053e-14 1.29844e-15 0
lhumerus -39.9382 -23.061 93.8958
lradius 55.385 0 0
lwrist 18.2439 0 0
lhand -21.7146 2.48946 0
lfingers 7.12502 0 0
lthumb 4.68451 32.4208 0
rclavicle 1.60053e-14 1.29844e-15 0
rhumerus -37.9712 13.9145 -93.8862
rradius 58.9976 0 0
rwrist 10.5276 0 0
rhand -9.39617 -18.4818 0
rfingers 7.12502 0 0
rthumb 16.5651 -767.796 0
380
root 5.98938 16.515 -15.2904 9.55299 -19.9386 -6.88229
lfemur -46.3641 18.9397 -12.8987
ltibia 56.3882 0 0
lfoot -9.61085 3.17582 0
ltoes 14.2101 0 0
rfemur -20.3219 -1.22159 31.668
rtibia 39.4838 0 0
rfoot -23.1391 0.528661 0
rtoes 18.0211 0 0
lowerback 4.98856 2.15158 4.12081
upperback 2.4756 3.03019 0.821928
thorax -0.073658 1.53954 -1.60046
lowerneck -7.44255 -0.927014 3.59638
upperneck -0.191853 -1.58899 1.81338
head 1.16865 -0.758575 -0.0910574
lclavicle 2.66862e-14 1.96497e-15 0
lhumerus -40.0067 -22.9257 93.6469
lradius 55.1752 0 0
lwrist 18.2438 0 0
lhand -21.3859 2.67784 0
lfingers 7.12502 0 0
lthumb 5.00184 32.6009 0
rclavicle 2.66862e-14 1.96497e-15 0
rhumerus -38.2229 14.2586 -94.0382
rradius 58.5143 0 0
rwrist 10.6783 0 0
rhand -9.73737 -18.5236 0
rfingers 7.12502 0 0
rthumb 16.2365 -767.864 0
381
root 5.93043 16.5183 -15.1167 9.52615 -20.5898 -7.06009
lfemur -45.7124 17.2712 -12.2142
ltibia 52.6119 0 0
lfoot -9.25955 4.98134 0
ltoes 14.5658 0 0
rfemur -18.9642 -0.735348 31.7679
rtibia 38.6844 0 0
rfoot -23.6312 0.46621 0
rtoes 17.8774 0 0
lowerback 4.82927 2.28273 4.28113
upperback 2.4185 3.20451 0.768608
thorax -0.0199598 1.62866 -1.74453
lowerneck -7.28241 -0.865962 3.76321
upperneck -0.0485251 -1.51603 1.76596
head 1.18582 -0.720758 -0.13108
lclavicle 3.92617e-14 2.69111e-15 0
lhumerus -40.121 -22.7458 93.3987
lradius 54.955 0 0
lwrist 18.252 0 0
lhand -20.9132 2.93279 0
lfingers 7.12502 0 0
lthumb 5.45822 32.8427 0
rclavicle 3.92617e-14 2.69111e-15 0
rhumerus -38.5316 14.6149 -94.2046
rradius 58.0301 0 0
rwrist 10.795 0 0
rhand -10.2212 -18.6479 0
rfingers 7.12502 0 0
rthumb 15.7704 -768.023 0
382
root 5.86697 16.5215 -14.9294 9.47643 -21.2684 -7.23592
lfemur -44.8309 15.4012 -11.3777
ltibia 48.5437 0 0
lfoot -8.84037 6.93041 0
ltoes 14.9088 0 0
rfemur -17.5343 -0.292118 31.8576
rtibia 37.8959 0 0
rfoot -24.0986 0.403662 0
rtoes 17.6764 0 0
lowerback 4.64375 2.42229 4.43051
upperback 2.35275 3.38876 0.711307
thorax 0.0408806 1.72272 -1.88593
lowerneck -7.10536 -0.807691 3.93673
upperneck 0.116008 -1.44709 1.72741
head 1.20735 -0.684313 -0.169625
lclavicle 5.30272e-14 3.41114e-15 0
lhumerus -40.2811 -22.5272 93.1664
lradius 54.7314 0 0
lwrist 18.2678 0 0
lhand -20.3115 3.24213 0
lfingers 7.12502 0 0
lthumb 6.03914 33.1343 0
rclavicle 5.30272e-14 3.41114e-15 0
rhumerus -38.8904 14.9578 -94.374
rradius 57.5745 0 0
rwrist 10.8676 0 0
rhand -10.83 -18.8439 0
rfingers 7.12502 0 0
rthumb 15.1839 -768.262 0
383
root 5.80054 16.5243 -14.7331 9.39973 -21.9637 -7.39749
lfemur -43.7714 13.4185 -10.4421
ltibia 44.4248 0 0
lfoot -8.37901 8.91472 0
ltoes 15.1774 0 0
rfemur -16.1283 0.0520123 31.9237
rtibia 37.2367 0 0
rfoot -24.473 0.348547 0
rtoes 17.4305 0 0
lowerback 4.44384 2.56667 4.55509
upperback 2.28122 3.57812 0.649928
thorax 0.103712 1.81914 -2.01735
lowerneck -6.92069 -0.751372 4.11304
upperneck 0.298243 -1.38122 1.69999
head 1.23376 -0.648704 -0.205338
lclavicle 6.70328e-14 4.04385e-15 0
lhumerus -40.4816 -22.2815 92.963
lradius 54.508 0 0
lwrist 18.2882 0 0
lhand -19.6147 3.58379 0
lfingers 7.12502 0 0
lthumb 6.71177 33.4545 0
rclavicle 6.70328e-14 4.04385e-15 0
rhumerus -39.2896 15.261 -94.533
rradius 57.1728 0 0
rwrist 10.8923 0 0
rhand -11.5268 -19.0839 0
rfingers 7.12502 0 0
rthumb 14.5126 -768.55 0
384
root 5.73253 16.5259 -14.5322 9.29253 -22.6723 -7.53182
lfemur -42.6203 11.4349 -9.48459
ltibia 40.5441 0 0
lfoot -7.91197 10.8053 0
ltoes 15.2949 0 0
rfemur -14.8591 0.2347 31.951
rtibia 36.8535 0 0
rfoot -24.6724 0.310023 0
rtoes 17.1611 0 0
lowerback 4.24577 2.71271 4.64038
upperback 2.20771 3.76853 0.58363
thorax 0.161641 1.91571 -2.13208
lowerneck -6.73986 -0.69412 4.28961
upperneck 0.493871 -1.31501 1.68473
head 1.26561 -0.612157 -0.237403
lclavicle 8.00828e-14 4.49251e-15 0
lhumerus -40.7119 -22.0255 92.7991
lradius 54.2858 0 0
lwrist 18.3087 0 0
lhand -18.8758 3.92591 0
lfingers 7.12502 0 0
lthumb 7.42493 33.7729 0
rclavicle 8.00828e-14 4.49251e-15 0
rhumerus -39.7159 15.4971 -94.6662
rradius 56.846 0 0
rwrist 10.872 0 0
rhand -12.255 -19.3226 0
rfingers 7.12502 0 0
rthumb 13.8109 -768.839 0
385
root 5.66418 16.5258 -14.3306 9.1519 -23.3975 -7.62527
lfemur -41.4983 9.58526 -8.60717
ltibia 37.2386 0 0
lfoot -7.48657 12.4527 0
ltoes 15.1695 0 0
rfemur -13.8567 0.187355 31.9227
rtibia 36.9209 0 0
rfoot -24.6015 0.298875 0
rtoes 16.8986 0 0
lowerback 4.07018 2.85772 4.67129
upperback 2.13695 3.95665 0.510827
thorax 0.206028 2.01058 -2.22406
lowerneck -6.57657 -0.630999 4.46525
upperneck 0.697778 -1.2425 1.68136
head 1.30353 -0.571663 -0.265543
lclavicle 9.0736e-14 4.64489e-15 0
lhumerus -40.9564 -21.7811 92.6829
lradius 54.0625 0 0
lwrist 18.3227 0 0
lhand -18.167 4.22675 0
lfingers 7.12502 0 0
lthumb 8.10913 34.0498 0
rclavicle 9.0736e-14 4.64489e-15 0
rhumerus -40.1531 15.6378 -94.7562
rradius 56.6108 0 0
rwrist 10.8163 0 0
rhand -12.9387 -19.4975 0
rfingers 7.12502 0 0
rthumb 13.1522 -769.06 0
386
root 5.59659 16.523 -14.1321 8.97549 -24.1498 -7.6635
lfemur -40.561 8.02731 -7.93625
ltibia 34.8933 0 0
lfoot -7.16091 13.6867 0
ltoes 14.6941 0 0
rfemur -13.2678 -0.164862 31.8198
rtibia 37.6419 0 0
rfoot -24.1518 0.327519 0
rtoes 16.6823 0 0
lowerback 3.94212 2.99947 4.63214
upperback 2.07462 4.13995 0.429186
thorax 0.226493 2.10224 -2.28787
lowerneck -6.44671 -0.555018 4.64014
upperneck 0.904044 -1.15525 1.6884
head 1.3482 -0.522975 -0.290023
lclavicle 9.73051e-14 4.37326e-15 0
lhumerus -41.1939 -21.5758 92.6202
lradius 53.8331 0 0
lwrist 18.322 0 0
lhand -17.5791 4.43474 0
lfingers 7.12502 0 0
lthumb 8.67651 34.2364 0
rclavicle 9.73051e-14 4.37326e-15 0
rhumerus -40.5814 15.6538 -94.7836
rradius 56.4795 0 0
rwrist 10.7414 0 0
rhand -13.4822 -19.5288 0
rfingers 7.12502 0 0
rthumb 12.6284 -769.127 0
387
root 5.58798 16.5224 -14.1069 8.94954 -24.2483 -7.66368
lfemur -40.4592 7.85384 -7.86939
ltibia 34.7009 0 0
lfoot -7.1269 13.7977 0
ltoes 14.5866 0 0
rfemur -13.2319 -0.244758 31.7977
rtibia 37.8082 0 0
rfoot -24.0504 0.338674 0
rtoes 16.6479 0 0
lowerback 3.92998 3.01742 4.61913
upperback 2.06734 4.16313 0.418147
thorax 0.226781 2.11374 -2.2923
lowerneck -6.43361 -0.544542 4.66235
upperneck 0.931382 -1.1434 1.69184
head 1.35481 -0.516262 -0.292335
lclavicle 9.77269e-14 4.27406e-15 0
lhumerus -41.2242 -21.5543 92.6193
lradius 53.8026 0 0
lwrist 18.3195 0 0
lhand -17.5123 4.45213 0
lfingers 7.12502 0 0
lthumb 8.74101 34.2511 0
rclavicle 9.77269e-14 4.27406e-15 0
rhumerus -40.6369 15.6403 -94.78
rradius 56.4741 0 0
rwrist 10.7285 0 0
rhand -13.5368 -19.5162 0
rfingers 7.12502 0 0
rthumb 12.5757 -769.118 0
